<?xml version="1.0" encoding="utf-8"?>
<!-- Generator: Adobe Illustrator 21.0.2, SVG Export Plug-In . SVG Version: 6.00 Build 0)  -->
<svg version="1.1" id="Layer_1" xmlns="http://www.w3.org/2000/svg" xmlns:xlink="http://www.w3.org/1999/xlink" x="0px" y="0px"
	 viewBox="0 0 595.3 595.3" style="enable-background:new 0 0 595.3 595.3;" xml:space="preserve">
<style type="text/css">
	.st0{fill:#FFFFFF;}
	.st1{fill:#008DD0;}
	.st2{fill:#EC008C;}
	.st3{fill:#ED1846;}
</style>
<g>
	<path class="st0" d="M297.6,37.6c-99.4,0-185.5,56.5-228.3,139.1h456.6C483.3,94.2,397.1,37.6,297.6,37.6L297.6,37.6z"/>
	<path class="st0" d="M69.4,176.8c0,0.2-0.1,0.4-0.2,0.6C69.2,177.2,69.3,176.9,69.4,176.8L69.4,176.8L69.4,176.8z"/>
	<path class="st0" d="M525.9,176.8L525.9,176.8c0.1,0.2,0.2,0.4,0.3,0.6C526.1,177.2,526,176.9,525.9,176.8L525.9,176.8z"/>
	<path class="st0" d="M528.1,181c-0.6-1.3-1.2-2.5-1.9-3.7c-0.1-0.2-0.2-0.4-0.3-0.6H69.4c0,0.2-0.2,0.4-0.2,0.6
		c-0.6,1.2-1.3,2.4-1.9,3.7H528.1L528.1,181z"/>
	<path class="st1" d="M47.5,236.5h500.4c-2-8.7-4.5-17.2-7.3-25.6H54.8C51.9,219.3,49.5,227.8,47.5,236.5L47.5,236.5z"/>
	<path class="st1" d="M56.3,206.6h482.8c-3.2-8.8-6.9-17.3-11-25.6H67.2C63.1,189.3,59.4,197.9,56.3,206.6L56.3,206.6z"/>
	<path class="st1" d="M42.4,266.3h510.5c-0.9-8.7-2.3-17.2-4.1-25.6H46.5C44.7,249.1,43.3,257.7,42.4,266.3L42.4,266.3z"/>
	<path class="st1" d="M297.6,551.3c132.6,0,241.7-100.5,255.3-229.5H42.3C55.9,450.8,165.1,551.3,297.6,551.3L297.6,551.3z"/>
	<path class="st1" d="M40.9,294.4c0,0.6,0,1.2,0,1.8h513.6c0-0.6,0-1.2,0-1.8c0-8-0.4-16-1.2-23.8H42
		C41.2,278.5,40.9,286.4,40.9,294.4L40.9,294.4z"/>
	<path class="st0" d="M54.8,210.9h485.7c-0.5-1.4-0.9-2.9-1.4-4.3H56.3C55.7,208,55.3,209.5,54.8,210.9L54.8,210.9z"/>
	<path class="st0" d="M46.5,240.8h502.3c-0.3-1.4-0.6-2.8-1-4.3H47.5C47.1,237.9,46.8,239.3,46.5,240.8L46.5,240.8z"/>
	<path class="st0" d="M42,270.6h511.3c-0.1-1.4-0.2-2.8-0.4-4.3H42.4C42.2,267.8,42.1,269.2,42,270.6L42,270.6z"/>
	<path class="st0" d="M42.3,321.8H553c0.9-8.4,1.4-16.9,1.4-25.6H40.9C41,304.8,41.4,313.4,42.3,321.8L42.3,321.8z"/>
	<path class="st1" d="M419.5,151.2H175.8c-8.1,7.8-15.5,16.4-22.2,25.6h288.2C435,167.5,427.6,159,419.5,151.2L419.5,151.2z"/>
	<path class="st1" d="M378.1,121.3H217.2c-13.3,7-25.6,15.5-36.8,25.6h234.4C403.7,136.9,391.3,128.3,378.1,121.3L378.1,121.3z"/>
	<path class="st0" d="M369.4,117.1H225.9c-2.9,1.3-5.9,2.7-8.7,4.3h160.9C375.2,119.8,372.3,118.4,369.4,117.1L369.4,117.1z"/>
	<path class="st0" d="M180.4,146.9c-1.5,1.4-3.1,2.8-4.6,4.3h243.7c-1.5-1.4-3.1-2.9-4.7-4.3H180.4L180.4,146.9z"/>
	<path class="st0" d="M296.6,430.9c-32.1,0-57.9,7.8-82.9,15.4c-24.6,7.4-47.9,14.5-77.1,14.5c-12.7,0-24.9-0.9-36.4-2.2
		c4.7,5.7,9.7,11.2,14.8,16.4c7,0.4,14.2,0.8,21.6,0.8c31.4,0,56.8-7.7,81.4-15.2c25-7.5,48.6-14.7,78.5-14.7
		c57.4,0,94.3,12.2,129.8,24c14.9,5,29.6,9.8,45.2,13.5c4.3-4,8.5-8.2,12.6-12.5c-18.7-3.8-35.6-9.4-53.1-15.1
		C396.1,444.1,356.4,430.9,296.6,430.9L296.6,430.9z"/>
	<path class="st0" d="M296.6,461.9c-32.1,0-57.9,7.8-82.9,15.4c-24.6,7.5-47.9,14.5-77.1,14.5c-1.1,0-2.2,0-3.3,0
		c6,5.1,12.3,9.8,18.8,14.2c24.5-1.9,45.5-8.3,66-14.4c25-7.5,48.6-14.7,78.5-14.7c57.4,0,94.3,12.2,129.8,23.9
		c5.6,1.9,11.1,3.7,16.6,5.4c5.1-3.5,10-7.2,14.8-11.1c-8.9-2.7-17.8-5.6-26.7-8.5C396.1,475,356.4,461.9,296.6,461.9L296.6,461.9z"
		/>
	<path class="st0" d="M213.7,508.2c-13.5,4.1-26.7,8-40.7,10.8c6.8,3.7,13.8,7.2,21,10.4c8.2-2.2,16.2-4.6,24.1-7
		c25-7.5,48.6-14.7,78.5-14.7c48.1,0,81.8,8.6,112.3,18.3c6.2-3,12.3-6.3,18.3-9.7c-34.1-11.2-72.9-23.4-130.6-23.4
		C264.4,492.8,238.6,500.6,213.7,508.2L213.7,508.2z"/>
	<path class="st0" d="M216.7,538.2c9.1,3,18.4,5.6,27.9,7.5c16.1-4.1,32.7-7,52-7c23.6,0,43.7,2,61.7,5.3c9.9-2.4,19.6-5.4,29.1-8.8
		c-25.1-6.5-54.1-11.4-90.8-11.4C265.7,523.7,240.8,530.9,216.7,538.2L216.7,538.2z"/>
	<path class="st0" d="M296.6,400c-32.1,0-57.9,7.8-82.9,15.4c-24.6,7.4-47.9,14.5-77.1,14.5c-22.2,0-43.2-2.6-60.6-5.8
		c3.4,5.8,7,11.5,10.8,16.9c15,2.2,31.9,3.7,49.7,3.7c31.4,0,56.8-7.7,81.4-15.2c25-7.6,48.6-14.7,78.5-14.7
		c57.4,0,94.3,12.2,129.8,24c22.6,7.5,44.4,14.7,70,18.2c3.6-4.4,7.1-9.1,10.5-13.8c-28.2-2.9-51.6-10.6-75.7-18.6
		C396.1,413.2,356.4,400,296.6,400L296.6,400z"/>
	<path class="st0" d="M136.6,368c-36,0-69.1-6.9-88.2-11.7c1.4,5.6,3,11.1,4.7,16.6c20.4,4.7,50.5,10.1,83.5,10.1
		c15.2,0,28.9-1.9,41.9-4.5c-8.4-2.2-18.8-6.8-27.4-11.1C146.4,367.8,141.6,368,136.6,368L136.6,368z"/>
	<path class="st0" d="M539,382.4c-32.9,1.2-58.6-4.3-83.4-11.7c-7.1,2-16.1,4.4-26.5,7.2c31.6,10.5,62,20.1,103.8,19.6
		C535.1,392.6,537.1,387.5,539,382.4L539,382.4z"/>
	<path class="st0" d="M213.7,384.5c-24.6,7.4-47.9,14.5-77.1,14.5c-29.9,0-57.9-4.7-77.4-9.2c2.3,5.7,4.8,11.4,7.4,16.9
		c19.2,3.8,43.6,7.2,70,7.2c31.4,0,56.8-7.7,81.4-15.2c9.6-2.9,19-5.8,28.7-8.2c-11.8-2.3-21.5-5-28.8-7.4
		C216.5,383.6,215.1,384,213.7,384.5L213.7,384.5z"/>
	<path class="st0" d="M431.1,393.8c-8.5-2.8-17.4-5.8-26.7-8.6c-9.3,2.7-20.6,5-32.8,6.8c20,4.5,37.6,10.3,54.8,15.9
		c28.4,9.4,55.6,18.3,90.6,20.1c2.9-4.8,5.7-9.7,8.2-14.7C488.4,412.7,460.4,403.5,431.1,393.8L431.1,393.8z"/>
	<path class="st0" d="M42.6,323.8c0.6,5.4,1.4,10.8,2.4,16.2c12.1,3.1,29.4,6.9,49.5,9.4l-17.8-17.8C62.4,328.9,50.6,326,42.6,323.8
		L42.6,323.8z"/>
	<path class="st0" d="M499.6,349.7l-22.4,11.2c19.8,4.3,41.2,6.8,67,5.3c1.5-5,2.8-10,3.9-15.1C530.1,352.4,514.3,351.6,499.6,349.7
		L499.6,349.7z"/>
	<path d="M144.7,115l3.2-2.9l25.8,28.4l-5.2,4.7l-28.6-15.5c-1.6-0.8-3.2-1.8-5-3.3l-0.1,0c1.4,1.5,2.7,2.9,4,4.3l20.6,22.7
		l-3.2,2.8l-25.8-28.4l5.1-4.7l29.2,15.9c1.1,0.6,2.2,1.2,3.8,2.2l0.1-0.1c-1-1-2-2-3-3.1L144.7,115L144.7,115z"/>
	<path d="M146.8,111.1l-4.2,3.9c0,0,14,15.5,18.7,20.6c-8.1-4.4-25.9-14.1-25.9-14.1l-7,6.4l27.8,30.6l5.4-4.9
		c0,0-14.1-15.5-18.5-20.4c5.8,3.2,25.7,13.9,25.7,13.9l7-6.4L148,110.1L146.8,111.1z M147.7,114.3c1.8,2,22.1,24.2,23.8,26.2
		c-1.1,1-2.4,2.2-3.2,3c-1.7-1-27.7-15-27.7-15c-1.7-0.9-3.1-1.9-4.7-3.2l-2.1,2.3l4,4.2c0,0,15.5,17,19.6,21.5
		c-0.5,0.4-0.6,0.5-1,0.9c-1.8-2-22-24.3-23.8-26.2c1.1-1,2.4-2.2,3.2-3c1.7,1,28.3,15.5,28.3,15.5c0.1,0,3.7,2.1,3.7,2.1l1.9-2.4
		l-3-3.1c0,0-15.9-17.5-20.1-22.1C147.3,114.7,147.3,114.6,147.7,114.3z"/>
	<path d="M203.2,104.3l-8.9,4.7l-5-20.4l0.1,0L203.2,104.3L203.2,104.3 M193.6,126.3l4.2-2.3l-2.7-11l10.7-5.7l7.8,8.4l4.2-2.3
		l-27.5-28.9l-5,2.6L193.6,126.3L193.6,126.3z"/>
	<path d="M187.8,89l5.5,22.3l12.3-6.5l-15.2-17.1L187.8,89z M192.1,94c3.6,4,7.3,8.3,8.8,9.9c-1.7,0.9-3.9,2.1-5.6,2.9
		C194.8,104.7,193.4,99.1,192.1,94z"/>
	<path d="M189.7,83.2l-5.9,3.1l8.8,42.1l7-3.7c0,0-2.2-9.2-2.7-11.1c1.5-0.8,7.2-3.8,8.7-4.6c1.3,1.4,7.8,8.4,7.8,8.4l6.9-3.7
		l-29.6-31.2L189.7,83.2z M190.1,86.4c1.4,1.5,22.9,24.2,25.3,26.7c-0.6,0.4-0.8,0.5-1.4,0.7c-1.3-1.3-7.8-8.4-7.8-8.4l-12.8,6.7
		c0,0,2.3,9.3,2.7,11.2c-0.5,0.2-0.7,0.4-1.4,0.7c-0.7-3.4-7.1-34.1-7.6-36.1C188.1,87.5,189.1,86.9,190.1,86.4z"/>
	<path d="M256.6,62.2l7.3-1.6l8,37.6l-4.2,0.9l-6.6-31c-0.4-1.6-0.6-3.1-1-4.7h-0.1c0,2.3,0,3.8-0.1,5.4l-1.3,32.3l-4.9,1.1
		l-14.5-29.4c-0.6-1.3-1.2-2.4-2.1-4.4H237c0.3,1.6,0.8,3.3,1.1,4.8l6.6,30.9l-4.1,0.9l-8-37.6l7.3-1.6l13.7,27.7
		c0.7,1.5,1.3,3,2,5.4l0-0.1c-0.1-2-0.3-3.8-0.2-5.8L256.6,62.2L256.6,62.2z"/>
	<path d="M263.6,59.2l-8.4,1.8c0,0-1.1,26.5-1.2,30c-3-6.2-13.2-26.9-13.2-26.9l-9.9,2.1l8.6,40.5l7.1-1.5c0,0-3.5-16.7-5.3-25.2
		c4.2,8.7,11.7,23.8,11.7,23.8l7.2-1.6c0,0,0.7-18.4,1.1-26.7c1.8,8.4,5.4,25.4,5.4,25.4l7.1-1.5l-8.7-40.4L263.6,59.2z M262.8,62.4
		c0.6,2.6,6.9,32,7.4,34.6c-0.6,0.2-0.7,0.2-1.2,0.2c-0.6-2.6-6.3-29.4-6.3-29.4l-0.4-1.6l-0.7-3.3l-3,0.5l-0.1,4.8v0.4
		c0,0-1,25.5-1.3,31.1c-0.9,0.2-1.7,0.4-2.7,0.6c-1-1.9-14-28.4-14-28.4c0,0-2.1-4.4-2.1-4.4l-3,1l1.1,4.8c0,0,5,23.3,6.3,29.4
		c-0.6,0.1-0.7,0.1-1.3,0.2c-0.5-2.6-6.8-32-7.4-34.6c1.5-0.3,3.5-0.8,4.8-1c0.9,1.9,13.1,26.6,13.1,26.6c0.6,1.3,1.1,2.7,1.9,5.2
		l3-0.6c-0.1-1.5-0.2-3.2-0.2-4.9c0-0.3,0-0.5,0-0.8c0,0,0.9-24.1,1.1-29.6C259.3,63.2,261.3,62.7,262.8,62.4z"/>
	<polygon points="300,97 302.1,58.7 306.3,58.9 304.5,93.4 320.1,94.3 319.9,98.1 300,97 	"/>
	<path d="M300.6,58.6l-2.2,39.8l22.8,1.2l0.4-6.9c0,0-13.2-0.7-15.6-0.8c0.1-2.7,1.9-34.5,1.9-34.5l-7.3-0.4L300.6,58.6z
		 M303.5,60.2c0.6,0.1,0.7,0.1,1.3,0.1c-0.1,2.7-1.8,34.5-1.8,34.5s13.2,0.7,15.6,0.9c0,0.4,0,0.4,0,0.8c-2.4-0.1-14.6-0.8-16.9-0.9
		C301.7,93,303.4,62.9,303.5,60.2z"/>
	<polygon points="346.6,103.3 356.5,66.2 360.6,67.3 350.7,104.4 346.6,103.3 	"/>
	<path d="M355,65.8l-10.3,38.5l7,1.8l10.7-40l-6.9-1.9L355,65.8z M357.5,68c0.6,0.1,0.7,0.2,1.3,0.3c-0.7,2.6-8.5,31.7-9.2,34.2
		c-0.5-0.1-0.7-0.1-1.3-0.3C349.1,99.7,356.8,70.6,357.5,68z"/>
	<polygon points="378.6,114.3 395.7,80 411.9,88 410.2,91.4 397.8,85.3 392.2,96.6 403.7,102.3 401.9,105.7 390.5,100 382.4,116.2 
		378.6,114.3 	"/>
	<path d="M394.4,79.3L376.6,115l6.5,3.2c0,0,7-14,8.1-16.3c2.1,1,11.5,5.7,11.5,5.7l3-6.1c0,0-9.3-4.6-11.5-5.6
		c0.9-1.8,3.4-6.8,4.3-8.6c2.2,1.1,12.4,6.1,12.4,6.1l3-6.1L395.1,78L394.4,79.3z M396.4,82c2,1,11.4,5.7,13.4,6.7
		c-0.2,0.3-0.2,0.4-0.4,0.7c-2.1-1-12.3-6.1-12.3-6.1l-7,13.9c0,0,9.4,4.7,11.5,5.7c-0.2,0.4-0.2,0.4-0.4,0.7
		c-2.1-1-11.5-5.7-11.5-5.7s-7,13.9-8.1,16.2c-0.5-0.2-0.6-0.3-1.1-0.6C381.8,111.3,395.2,84.3,396.4,82z"/>
	<path d="M435.8,133.3l-7.9-6.4l16.9-12.6l0.1,0.1L435.8,133.3L435.8,133.3 M411.9,133.1l3.6,3l9.2-6.8l9.4,7.6l-4.7,10.5l3.7,3
		l15.9-36.5l-4.4-3.6L411.9,133.1L411.9,133.1z"/>
	<path d="M427.1,125.7l-1.5,1.2l10.7,8.8l9.9-20.7l-2.3-1.9L427.1,125.7z M441.1,119.1c-2.4,4.8-4.8,10-5.7,11.9
		c-1.5-1.2-3.4-2.8-4.9-4C432.2,125.7,436.8,122.3,441.1,119.1z"/>
	<path d="M443.9,109.1l-34.4,23.9l6.1,5c0,0,7.7-5.7,9.2-6.8c1.4,1.1,6.3,5.2,7.6,6.2c-0.7,1.7-4.6,10.4-4.6,10.4l6,5l17.2-39.5
		l-6.1-5L443.9,109.1z M444.6,112.1c0.8,0.7,1.8,1.5,2.6,2.2c-0.8,1.9-13.3,30.5-14.7,33.7c-0.6-0.5-0.8-0.7-1.2-1.1
		c0.7-1.7,4.7-10.4,4.7-10.4l-11.1-9.2c0,0-7.7,5.7-9.2,6.8c-0.5-0.4-0.7-0.5-1.3-1C417.3,131.2,443,113.3,444.6,112.1z"/>
	<path class="st0" d="M303,377.6c-136.8,0-223.7-49-262-76.8c0.2,8,0.7,15.9,1.7,23.7c39.2,34,124.3,92.6,245.4,92.6
		c126.4,0,222.3-51,262.2-76.5c1.2-6.6,2.2-13.3,2.9-20.1C515.3,338.4,419.6,377.6,303,377.6L303,377.6z"/>
	<path d="M39.5,300.8c0.2,8.1,0.7,16.1,1.7,23.9l0,0.5l0.4,0.4c40,34.7,125.3,92.9,246.4,92.9c128.7,0,226.8-53.7,263-76.8l0.5-0.4
		l0.1-0.7c1.3-7.2,2.3-13.8,2.9-20.3l0.3-2.6l-2.4,1.1C516.5,336.2,420,376.1,303,376.1c-135.4,0-221.7-48-261.1-76.5l-2.5-1.8
		L39.5,300.8z M42.6,303.8c40.8,28.9,126.9,75.3,260.4,75.3c115.1,0,210.4-38.4,248.4-56.2c-0.6,5.3-1.4,10.8-2.4,16.7
		c-36.4,23.1-133.6,75.9-260.8,75.9c-119.7,0-204.1-57.3-244-91.8C43.3,317.3,42.9,310.5,42.6,303.8z"/>
	<path class="st0" d="M419.5,448.6c-8.4-7.5-80.2-113-95.9-135.3c-5.5-2.8-10.9-5.8-12.5-7.1l-2,1.3
		c21.9,32.8,91.5,140.8,100.3,148.7C419.5,465.2,428.7,456.9,419.5,448.6L419.5,448.6z"/>
	<path d="M310.3,304.9L307,307l25.4,38.7c29.2,44.6,69.2,105.6,75.9,111.6c6.2,5.5,12.2,5.2,14.9,2.1c0.9-1,1.5-2.4,1.5-4
		c0-2.3-1.2-5.1-4.3-7.9c-6.4-5.7-51.4-71-78.3-109.9l-17.6-25.4l-0.3-0.2c-8.9-4.6-11.4-6.3-12.2-6.9l-0.8-0.8L310.3,304.9z
		 M410.4,455c-6.5-5.8-48-69.1-75.5-111c0,0-21.6-32.7-23.6-35.8c1.4,1,4.5,2.8,11.2,6.2c0.4,0.6,17.2,24.8,17.2,24.8
		c36.4,52.9,72.6,105,78.7,110.5l0,0c2.4,2.1,3.3,4.1,3.3,5.6c0,0.8-0.3,1.5-0.7,2C419.3,459.3,415,459.1,410.4,455z M420.5,447.5
		L420.5,447.5L420.5,447.5z"/>
	<path class="st0" d="M381.4,267.2c0,7.4-5.6,13.3-12.5,13.3c-6.9,0-12.5-5.9-12.5-13.3c0-7.3,5.6-13.3,12.5-13.3
		C375.7,253.9,381.4,259.9,381.4,267.2L381.4,267.2z"/>
	<path d="M354.8,267.2c0,8.2,6.3,14.9,14,14.9c7.7,0,14-6.6,14-14.9c0-8.2-6.3-14.8-14-14.8C361.1,252.4,354.8,259.1,354.8,267.2z
		 M357.8,267.2c0-6.5,4.9-11.8,11-11.8c6.1,0,11,5.3,11,11.8c0,6.5-4.9,11.8-11,11.8C362.7,279.1,357.8,273.8,357.8,267.2z"/>
	<path class="st0" d="M362.3,397.9c-6.1,10.9-20.9-0.4-10.7-12.8c13.1-16,33.3-36.2,38.1-42.7c4.8-6.4,11.9-9.6,8.4-17
		c-3.6-7.4-14.3-21.3-14.3-21.3v45.3l-20.9,22.7l-7.6-13.7v-52.2l-3.6-3.2l-14.3,17c0,0-22.6-10.6-26.2-13.8
		c-3.6-3.2-14.3,7.5-14.3,7.5l-7.2-6.4c0,0,7.2-15,16.7-15l28,16.5l14.9-17.6h39.3c0,0,9.2,15.7,16.7,26.7c9.6,13.8,7.1,18.1,0,25.6
		C398,350.9,367.1,389.4,362.3,397.9L362.3,397.9z"/>
	<path d="M349.2,289.8h-0.7c0,0-13,15.5-14.5,17.2c-2-1.2-27.2-16.1-27.2-16.1h-0.4c-10.4,0-17.8,15.2-18.1,15.8l-0.5,1l9,8.1l1-1
		c4.6-4.5,10.7-8.7,12.2-7.4c3.7,3.2,24.2,13,26.6,14.1l1.1,0.5c0,0,12.3-14.7,14.1-16.7c0.8,0.7,1.4,1.3,1.9,1.7c0,1.3,0,52,0,52
		s6.5,11.5,7.3,13.1c-3.7,4.1-7.4,8.3-10.6,12.2c-2.5,3.1-3.8,6.4-3.8,9.5c0,1.5,0.3,3,1,4.4c1.4,3.3,4.6,5.5,7.9,5.7
		c3.2,0.1,6.2-1.8,8.1-5.2l0,0c4.8-8.7,35.8-47,42.7-54.1c7.7-8,10-13.1,0.1-27.4c-7.4-10.7-16.5-26.4-16.6-26.6l-0.4-0.7h-0.9
		H349.2z M387.6,292.7c2,3.3,9.8,16.5,16.4,26c4.2,6.2,6,10.2,6,13.5c0,3.8-2.4,6.5-5.9,10.2c-6.9,7.1-38.2,45.9-43.1,54.6l0,0
		c-1.4,2.4-3.3,3.7-5.4,3.6c-2.2-0.1-4.3-1.6-5.3-3.9c-0.4-1-0.7-2.1-0.7-3.2c0-2.5,1.1-5.1,3.2-7.6c3.5-4.2,7.5-8.8,11.5-13.3
		c0.5-0.5,9.2-10,15-16.4c2.1-2.2,3.9-4.3,5.5-6c0,0,0.4-0.5,0.4-0.5c2.5-2.8,4.5-5.1,5.7-6.6c1.2-1.7,2.6-3.1,4-4.5
		c2.7-2.8,5.6-5.7,5.6-9.7c0-1.3-0.3-2.8-1.1-4.4c-3.6-7.5-14.1-21-14.5-21.6l-2.7-3.5c0,0,0,48,0,49.1c-0.2,0.2-3.3,3.6-5.5,6
		c-0.6,0.7-1.3,1.4-1.9,2.1c-3.6,3.9-7.7,8.2-11.7,12.7c-1.5-2.7-6.1-11-6.5-11.5c0-0.8,0-52.6,0-52.6l-5.2-4.6
		c0,0-13.2,15.7-14.5,17.4c-6.9-3.2-22.1-10.8-24.8-13.1c-3.9-3.5-11.8,3.1-15.4,6.5c-1.2-1.2-4.1-3.7-5.2-4.7
		c1.7-3.1,7.5-12.8,14.5-13.1c0.8,0.5,28.6,16.9,28.6,16.9s14.4-17,15.3-18C351.2,292.7,386,292.7,387.6,292.7z M385.2,308.5
		c3.4,4.6,9.1,12.5,11.5,17.5c0.6,1.2,0.8,2.2,0.8,3.2c0,2.5-1.9,4.6-4.8,7.6c-1.4,1.5-2.9,3-4.2,4.8c-0.7,0.9-1.9,2.3-3.3,3.9
		C385.2,339.6,385.2,315.1,385.2,308.5z"/>
	<path class="st0" d="M363.5,468.3c-8.4-7.5-96.3-132.7-111.9-154.9c-5.5-2.8-11-5.8-12.5-7.1l-2,1.3
		c21.9,32.8,107.5,160.5,116.3,168.3C363.5,484.8,372.7,476.6,363.5,468.3L363.5,468.3z"/>
	<path d="M238.3,304.9l-3.4,2.1l0.9,1.3c25.1,37.5,107.7,160.7,116.6,168.6c6.1,5.5,12.1,5.3,14.9,2.1c2.3-2.6,2.3-7.2-2.8-11.8l0,0
		c-8.2-7.3-94.5-130.2-111.7-154.7l-0.2-0.3l-0.4-0.2c-9-4.6-11.5-6.3-12.2-6.9l-0.8-0.8L238.3,304.9z M354.4,474.7
		c-6.8-6.1-63.6-89.6-115-166.4c2,1.3,5.7,3.4,11.2,6.2c24.5,34.9,103.7,147.6,112,154.9l0,0c3.6,3.2,3.9,6.2,2.6,7.6
		C363.4,479,359,478.8,354.4,474.7z"/>
	<path class="st0" d="M309.3,267.2c0,7.4-5.6,13.3-12.5,13.3c-6.9,0-12.5-5.9-12.5-13.3c0-7.3,5.6-13.3,12.5-13.3
		C303.7,253.9,309.3,259.9,309.3,267.2L309.3,267.2z"/>
	<path d="M282.8,267.2c0,8.2,6.3,14.9,14,14.9c7.7,0,14-6.6,14-14.9c0-8.2-6.3-14.8-14-14.8C289.1,252.4,282.8,259.1,282.8,267.2z
		 M285.8,267.2c0-6.5,4.9-11.8,11-11.8c6.1,0,11,5.3,11,11.8c0,6.5-4.9,11.8-11,11.8C290.7,279.1,285.8,273.8,285.8,267.2z"/>
	<path class="st0" d="M290.3,397.9c-6.1,10.9-20.9-0.4-10.7-12.8c13.1-16,33.3-36.2,38.1-42.7c4.7-6.4,11.9-9.6,8.4-17
		c-3.6-7.4-14.4-21.3-14.4-21.3v45.3l-20.9,22.7l-7.7-13.7v-52.2l-3.6-3.2l-14.3,17c0,0-22.6-10.6-26.2-13.8
		c-3.6-3.2-14.3,7.5-14.3,7.5l-7.1-6.4c0,0,7.1-15,16.7-15l28,16.5l14.9-17.6h39.3c0,0,9.2,15.7,16.7,26.7c9.5,13.8,7.2,18.1,0,25.6
		C326,350.9,295,389.4,290.3,397.9L290.3,397.9z"/>
	<path d="M277.1,289.8h-0.7c0,0-13,15.5-14.5,17.2c-2-1.2-27.3-16.1-27.3-16.1h-0.4c-10.3,0-17.7,15.2-18,15.8l-0.5,1l9,8.1l1-1
		c4.6-4.5,10.7-8.7,12.2-7.4c3.7,3.2,24.2,13,26.6,14.1l1.1,0.5c0,0,12.3-14.7,14-16.7c0.8,0.7,1.5,1.3,2,1.7c0,1.3,0,52,0,52
		s6.4,11.5,7.3,13.1c-3.7,4.2-7.4,8.3-10.6,12.2c-2.5,3.1-3.8,6.4-3.8,9.5c0,1.5,0.3,3,0.9,4.4c1.5,3.3,4.6,5.5,7.9,5.7
		c3.3,0.1,6.3-1.7,8.2-5.2l0,0c4.8-8.7,35.8-47,42.6-54.1c7.7-8,10.1-13.1,0.2-27.4c-7.4-10.7-16.5-26.4-16.6-26.6l-0.5-0.7h-0.8
		H277.1z M315.6,292.7c1.9,3.3,9.7,16.5,16.3,26c4.2,6.2,6,10.2,6,13.5c0,3.8-2.3,6.5-5.9,10.2c-6.9,7.1-38.2,45.9-43.1,54.6l0,0
		c-1.4,2.4-3.3,3.7-5.4,3.6c-2.2-0.1-4.3-1.6-5.3-3.9c-0.4-1-0.7-2.1-0.7-3.2c0-2.5,1.1-5.1,3.1-7.6c3.4-4.2,7.3-8.6,11.3-13.1
		c0.2-0.2,9.7-10.5,15.5-16.9c1.9-2,3.6-3.9,5.2-5.6l0.4-0.5c2.5-2.8,4.5-5.1,5.7-6.6c1.2-1.7,2.6-3.1,4-4.5
		c2.8-2.8,5.6-5.7,5.6-9.7c0-1.3-0.4-2.8-1.1-4.4c-3.6-7.5-14-21-14.5-21.6l-2.7-3.5c0,0,0,48,0,49.1c-0.2,0.2-3.2,3.5-5.2,5.7
		c-0.7,0.8-1.4,1.6-2.2,2.4c-3.6,3.9-7.7,8.2-11.7,12.7c-1.5-2.7-6.1-11-6.5-11.5c0-0.8,0-52.6,0-52.6l-5.2-4.6
		c0,0-13.3,15.7-14.6,17.4c-6.8-3.2-22.1-10.8-24.8-13.1c-3.8-3.5-11.7,3.1-15.3,6.5c-1.3-1.2-4.1-3.7-5.2-4.7
		c1.7-3.1,7.5-12.8,14.5-13.1c0.9,0.5,28.6,16.9,28.6,16.9s14.4-17,15.2-18C279.2,292.7,314,292.7,315.6,292.7z M313.2,308.5
		c3.4,4.6,9.1,12.5,11.4,17.5c0.6,1.2,0.8,2.2,0.8,3.2c0,2.5-1.9,4.6-4.8,7.6c-1.4,1.5-2.9,3-4.2,4.8c-0.7,0.9-1.8,2.3-3.3,3.9
		C313.2,339.6,313.2,315.1,313.2,308.5z"/>
	<path class="st0" d="M288.6,468.3c-7.5-7.5-86.2-132.7-100.2-154.9c-4.9-2.8-9.8-5.8-11.2-7.1l-1.8,1.3
		c19.7,32.8,96.3,160.5,104.2,168.3C288.6,484.8,296.9,476.6,288.6,468.3L288.6,468.3z"/>
	<path d="M176.3,304.9l-3,2.1l0.7,1.2c22.5,37.5,96.5,160.7,104.4,168.6c5.5,5.5,10.7,5.2,13.3,2.6c2.5-2.5,2.8-7.3-2.1-12.2l0,0
		c-7.3-7.3-84.6-130.1-100-154.7l-0.2-0.3l-0.4-0.2c-8-4.6-10.3-6.3-10.9-6.9l-0.9-0.9L176.3,304.9z M280.6,474.7
		c-6-6-56.8-89.4-102.8-166.1c1.4,1,4.1,2.8,9.5,5.9c21.9,34.9,92.9,147.5,100.3,154.8l0,0c3.4,3.4,3.6,6.6,2.1,8
		C288,478.9,284.4,478.6,280.6,474.7z"/>
	<path class="st0" d="M240.1,267.2c0,7.4-5,13.3-11.2,13.3c-6.2,0-11.2-5.9-11.2-13.3c0-7.3,5.1-13.3,11.2-13.3
		C235.1,253.9,240.1,259.9,240.1,267.2L240.1,267.2z"/>
	<path d="M216.2,267.2c0,8.2,5.7,14.9,12.7,14.9c6.9,0,12.7-6.6,12.7-14.9c0-8.2-5.7-14.8-12.7-14.8
		C221.9,252.4,216.2,259.1,216.2,267.2z M219.2,267.2c0-6.5,4.4-11.8,9.7-11.8c5.3,0,9.7,5.3,9.7,11.8c0,6.5-4.4,11.8-9.7,11.8
		C223.5,279.1,219.2,273.8,219.2,267.2z"/>
	<path class="st0" d="M223,397.9c-5.4,10.9-18.7-0.4-9.6-12.8c11.7-16,29.9-36.2,34.1-42.7c4.3-6.4,10.7-9.6,7.5-17
		c-3.2-7.4-12.8-21.3-12.8-21.3v45.3l-18.8,22.7l-6.8-13.7v-52.2l-3.2-3.2l-12.8,17c0,0-20.3-10.6-23.4-13.8
		c-3.2-3.2-12.8,7.5-12.8,7.5l-6.3-6.4c0,0,6.3-15,14.9-15l25.1,16.5l13.3-17.6h35.2c0,0,8.2,15.7,14.9,26.7
		c8.6,13.8,6.4,18.1,0,25.6C255,350.9,227.3,389.4,223,397.9L223,397.9z"/>
	<path d="M211.3,289.8h-0.7c0,0-11.5,15.2-13,17.1c-2.1-1.4-24.3-16-24.3-16h-0.5c-9.4,0-16,15.2-16.3,15.9l-0.4,0.9l8.2,8.2l1-1.2
		c2.8-3.1,7.8-7.5,10.1-7.6c0.4,0,0.5,0.1,0.6,0.2c3.2,3.3,21.7,13,23.8,14.1l1.2,0.6c0,0,10.8-14.4,12.5-16.7
		c0.7,0.7,1.2,1.2,1.6,1.5c0,1.2,0,52,0,52s5.9,11.7,6.6,13.1c-3.4,4.2-6.7,8.4-9.5,12.3c-2.3,3.1-3.4,6.4-3.4,9.5
		c0,1.9,0.4,3.6,1.2,5.2c1.5,3,4.3,4.9,7.2,4.9c1.7,0,4.9-0.7,7.1-5.2l0,0c4.3-8.6,32.1-46.9,38.2-54.1c6.8-8,8.9-13,0.1-27.4
		c-6.6-10.7-14.8-26.4-14.9-26.6l-0.4-0.8h-0.9H211.3z M245.6,292.7c1.8,3.3,8.8,16.5,14.6,26c3.9,6.2,5.4,10.3,5.4,13.6
		c0,3.9-2.1,6.5-5.2,10.3c-6.2,7.1-34.2,45.9-38.6,54.7l0,0c-1.2,2.3-2.7,3.5-4.5,3.5c-1.8,0-3.5-1.2-4.4-3.2
		c-0.6-1.2-0.9-2.5-0.9-3.9c0-2.5,1-5.2,2.8-7.7c3.1-4.2,6.6-8.7,10.2-13.2c0.3-0.4,8.9-10.8,14-17c1.5-1.7,2.8-3.4,4-4.8l0.9-1.1
		l0,0c2.3-2.8,4-5.1,5.1-6.6c1.1-1.7,2.4-3.1,3.6-4.5c2.5-2.8,5-5.7,5-9.7c0-1.3-0.3-2.7-1-4.4c-3.2-7.5-12.5-21-13-21.6l-2.7-3.9
		c0,0,0,48.5,0,49.6c-0.1,0.2-2.8,3.3-4.5,5.5c-0.7,0.8-1.4,1.7-2.1,2.5c-3.1,3.9-6.7,8.1-10.3,12.5c-1.4-2.9-5.4-10.8-5.7-11.3
		c0-0.7,0-52.5,0-52.5l-4.9-4.9c0,0-11.7,15.6-13.1,17.4c-6.2-3.3-19.6-10.6-22-13c-0.7-0.7-1.7-1.1-2.7-1c-3.7,0.1-8.8,5-11.1,7.4
		c-1.3-1.3-3.7-3.6-4.6-4.5c2-4.3,7.2-12.7,12.8-13.1c0.9,0.6,25.8,17,25.8,17s12.9-17,13.7-18.1
		C213.4,292.7,243.9,292.7,245.6,292.7z M243.7,308.9c3.1,4.6,7.9,12.3,9.9,17c0.5,1.2,0.7,2.3,0.7,3.2c0,2.7-1.8,4.8-4.3,7.6
		c-1.3,1.5-2.6,3-3.8,4.8c-0.6,0.9-1.5,2.1-2.6,3.5C243.7,339,243.7,315.9,243.7,308.9z"/>
	<path class="st0" d="M243.6,176.1c0-29.9,24.2-54.1,54-54.1c29.9,0,54.1,24.2,54.1,54.1c0,29.9-24.2,54.1-54.1,54.1
		C267.8,230.2,243.6,205.9,243.6,176.1L243.6,176.1z"/>
	<path class="st2" d="M242,176.1c0,30.6,25,55.6,55.6,55.6c30.7,0,55.6-24.9,55.6-55.6c0-30.6-24.9-55.6-55.6-55.6
		C267,120.5,242,145.4,242,176.1z M245,176.1c0-29,23.6-52.6,52.6-52.6c29,0,52.6,23.6,52.6,52.6c0,29-23.6,52.6-52.6,52.6
		C268.6,228.6,245,205,245,176.1z"/>
	<path class="st0" d="M236,176.1c0-34.1,27.6-61.7,61.7-61.7c34.1,0,61.7,27.6,61.7,61.7c0,34-27.6,61.7-61.7,61.7
		C263.6,237.7,236,210.1,236,176.1L236,176.1z"/>
	<path class="st0" d="M243.6,176.1c0-29.9,24.2-54.1,54-54.1c29.9,0,54.1,24.2,54.1,54.1c0,29.9-24.2,54.1-54.1,54.1
		C267.8,230.2,243.6,205.9,243.6,176.1L243.6,176.1z"/>
	<path class="st3" d="M242,176.1c0,30.6,25,55.6,55.6,55.6c30.7,0,55.6-24.9,55.6-55.6c0-30.6-24.9-55.6-55.6-55.6
		C267,120.5,242,145.4,242,176.1z M245,176.1c0-29,23.6-52.6,52.6-52.6c29,0,52.6,23.6,52.6,52.6c0,29-23.6,52.6-52.6,52.6
		C268.6,228.6,245,205,245,176.1z"/>
	<polygon class="st0" points="297.6,126.9 253.2,204.3 342.1,204.3 297.6,126.9 253.2,204.3 342.1,204.3 297.6,126.9 	"/>
	<path class="st3" d="M296.3,126.2l-45.7,79.6h94l-47-81.8L296.3,126.2z M297.6,129.9c2.4,4.1,39.5,68.7,41.9,72.8
		c-4.8,0-79,0-83.7,0C258.1,198.6,295.3,134,297.6,129.9z"/>
	<path class="st1" d="M297.6,101.4c-25.5,0-49.7,5.6-71.7,15.7h143.5C347.4,107,323.1,101.4,297.6,101.4L297.6,101.4z"/>
	<path d="M42.2,294.4C42.2,153.6,156.8,39,297.6,39c140.9,0,255.5,114.6,255.5,255.5c0,140.9-114.6,255.5-255.5,255.5
		C156.8,550,42.2,435.3,42.2,294.4 M39.5,294.4c0,142.3,115.8,258.1,258.1,258.1c142.3,0,258.2-115.8,258.2-258.1
		c0-142.3-115.8-258.1-258.2-258.1C155.3,36.3,39.5,152.1,39.5,294.4z"/>
	<path d="M40.7,294.4c0,141.7,115.3,257,257,257c141.7,0,257-115.3,257-257c0-141.7-115.3-257-257-257
		C155.9,37.4,40.7,152.7,40.7,294.4z M43.6,294.4c0-140.1,113.9-254,254-254c140.1,0,254.1,114,254.1,254
		c0,140.1-113.9,254-254.1,254C157.6,548.5,43.6,434.5,43.6,294.4z"/>
	<path d="M38,294.4c0,143.2,116.5,259.6,259.6,259.6c143.2,0,259.6-116.5,259.6-259.6S440.8,34.8,297.6,34.8
		C154.5,34.8,38,151.3,38,294.4z M41.1,294.4C41.1,153,156.2,37.8,297.6,37.8c141.5,0,256.7,115.1,256.7,256.6
		c0,141.5-115.2,256.6-256.7,256.6C156.2,551.1,41.1,435.9,41.1,294.4z"/>
</g>
</svg>
